<?xml version="1.0" standalone="no"?>
<!DOCTYPE svg PUBLIC "-//W3C//DTD SVG 20010904//EN"
 "http://www.w3.org/TR/2001/REC-SVG-20010904/DTD/svg10.dtd">
<svg version="1.0" xmlns="http://www.w3.org/2000/svg"
 width="300.000000pt" height="300.000000pt" viewBox="0 0 300.000000 300.000000"
 preserveAspectRatio="xMidYMid meet">
<metadata>
Created by potrace 1.11, written by Peter Selinger 2001-2013
</metadata>
<g transform="translate(0.000000,300.000000) scale(0.100000,-0.100000)"
fill="#000000" stroke="none">
<path d="M2920 2830 c-8 -5 -54 -31 -101 -59 -280 -164 -506 -410 -641 -698
-44 -94 -103 -269 -113 -334 -4 -24 -8 -46 -11 -50 -2 -3 -6 -26 -9 -50 -3
-24 -7 -60 -10 -79 -3 -19 -7 -75 -10 -124 -4 -72 -9 -94 -25 -111 -12 -12
-24 -45 -29 -74 -4 -28 -12 -55 -16 -59 -7 -7 -6 10 15 193 19 155 15 643 -5
675 -2 3 -6 26 -10 50 -23 164 -116 320 -191 320 -132 0 -366 -262 -473 -530
-37 -92 -41 -114 -48 -215 -6 -98 14 -188 57 -252 17 -24 30 -46 30 -48 0 -2
-17 -9 -37 -15 -103 -33 -209 -127 -242 -214 -25 -68 -26 -189 0 -271 38 -126
166 -273 255 -297 24 -7 44 -15 44 -19 0 -7 -93 -34 -160 -45 -25 -4 -90 -6
-145 -5 -185 7 -400 5 -440 -2 -140 -26 -270 -69 -365 -121 -63 -34 -171 -104
-214 -139 l-29 -24 27 -36 28 -37 92 64 c241 168 443 227 746 219 273 -8 327
-6 402 12 126 31 196 65 328 158 19 13 82 55 139 92 65 41 136 98 185 149 117
119 151 196 115 268 -23 46 -24 86 -3 116 13 19 18 21 31 10 12 -10 18 -9 29
7 12 16 11 23 -5 49 -26 44 -19 157 21 351 38 186 96 338 189 493 73 122 129
193 235 298 108 107 192 171 331 254 57 34 106 66 109 72 8 12 -28 62 -47 65
-8 1 -21 -2 -29 -7z m-1092 -493 c12 -14 42 -98 47 -131 2 -12 9 -48 14 -81
29 -165 32 -503 6 -720 -2 -16 -5 -50 -8 -75 -3 -25 -13 -76 -22 -115 -21 -89
-23 -98 -25 -110 0 -5 -7 5 -15 23 -25 56 -106 150 -161 188 -47 30 -153 75
-172 73 -4 -1 -33 -1 -64 0 l-57 1 -28 58 c-56 114 -37 285 52 467 65 133 119
210 215 307 106 107 189 151 218 115z m-273 -1038 c64 -18 117 -45 157 -81 46
-41 53 -72 19 -76 -44 -7 -143 47 -236 128 l-46 40 33 0 c18 0 51 -5 73 -11z
m-89 -59 c121 -113 212 -169 289 -178 30 -3 46 0 58 13 25 24 21 12 -22 -80
-49 -104 -90 -164 -161 -236 -67 -69 -154 -102 -265 -103 -129 -2 -207 61
-248 201 -8 27 -13 83 -12 128 2 93 30 159 90 216 42 41 151 99 184 99 15 0
46 -21 87 -60z m427 -288 c5 -7 -37 -62 -47 -62 -3 0 2 16 11 35 16 34 27 42
36 27z"/>
</g>
</svg>
