<?xml version="1.0" standalone="no"?>
<!DOCTYPE svg PUBLIC "-//W3C//DTD SVG 20010904//EN"
 "http://www.w3.org/TR/2001/REC-SVG-20010904/DTD/svg10.dtd">
<svg version="1.0" xmlns="http://www.w3.org/2000/svg"
 width="554.000000pt" height="554.000000pt" viewBox="0 0 554.000000 554.000000"
 preserveAspectRatio="xMidYMid meet">
<metadata>
Created by potrace 1.14, written by Peter Selinger 2001-2017
</metadata>
<g transform="translate(0.000000,554.000000) scale(0.100000,-0.100000)"
fill="#000000" stroke="none">
<path d="M2480 5145 c-216 -30 -391 -84 -570 -176 -377 -195 -625 -525 -695
-926 -10 -55 -15 -151 -15 -269 l0 -184 510 0 510 0 0 73 c1 121 17 206 56
286 67 135 189 230 350 271 319 82 642 -116 684 -418 29 -210 -70 -379 -295
-501 -281 -153 -455 -325 -574 -566 -99 -201 -131 -356 -131 -642 l0 -183 460
0 460 0 0 94 c0 285 113 482 361 629 394 232 650 567 729 956 25 122 27 328 5
454 -70 400 -319 733 -694 926 -187 95 -355 146 -579 176 -138 18 -439 18
-572 0z"/>
<path d="M2692 1629 c-311 -40 -552 -312 -552 -624 0 -184 93 -377 237 -489
191 -150 453 -179 667 -75 175 85 301 246 341 434 89 420 -269 808 -693 754z"/>
</g>
</svg>
