<?xml version="1.0" standalone="no"?>
<!DOCTYPE svg PUBLIC "-//W3C//DTD SVG 20010904//EN"
 "http://www.w3.org/TR/2001/REC-SVG-20010904/DTD/svg10.dtd">
<svg version="1.0" xmlns="http://www.w3.org/2000/svg"
 width="280.000000pt" height="280.000000pt" viewBox="0 0 280.000000 280.000000"
 preserveAspectRatio="xMidYMid meet">
<metadata>
Created by potrace 1.14, written by Peter Selinger 2001-2017
</metadata>
<g transform="translate(0.000000,280.000000) scale(0.100000,-0.100000)"
fill="#000000" stroke="none">
<path d="M650 1445 l0 -1085 125 0 125 0 0 339 0 339 383 5 c336 4 393 7 472
24 315 71 515 245 587 510 29 110 29 306 -1 416 -35 132 -75 202 -171 297
-123 124 -257 190 -455 224 -74 13 -179 16 -577 16 l-488 0 0 -1085z m1040
860 c228 -51 372 -186 415 -390 41 -193 -5 -372 -125 -492 -69 -69 -150 -113
-267 -145 -71 -19 -109 -22 -445 -26 l-368 -4 0 542 0 542 358 -5 c286 -4 372
-8 432 -22z"/>
</g>
</svg>
