<?xml version="1.0" standalone="no"?>
<!DOCTYPE svg PUBLIC "-//W3C//DTD SVG 20010904//EN"
 "http://www.w3.org/TR/2001/REC-SVG-20010904/DTD/svg10.dtd">
<svg version="1.0" xmlns="http://www.w3.org/2000/svg"
 width="600.000000pt" height="600.000000pt" viewBox="0 0 600.000000 600.000000"
 preserveAspectRatio="xMidYMid meet">
<metadata>
Created by potrace 1.14, written by Peter Selinger 2001-2017
</metadata>
<g transform="translate(0.000000,600.000000) scale(0.100000,-0.100000)"
fill="#000000" stroke="none">
<path d="M3193 4963 c-7 -2 -13 -11 -13 -18 0 -15 -27 -28 -41 -20 -15 10 -46
-13 -59 -45 -7 -16 -16 -30 -21 -30 -5 0 -9 -7 -9 -16 0 -9 -13 -32 -30 -51
-16 -18 -30 -39 -30 -46 0 -7 -9 -18 -20 -25 -11 -6 -31 -30 -45 -52 -14 -23
-34 -44 -43 -47 -22 -9 -41 -34 -42 -54 0 -21 -52 -88 -67 -89 -7 0 -13 -7
-13 -16 0 -8 -4 -12 -10 -9 -6 4 -10 -5 -10 -19 0 -14 -5 -26 -10 -26 -6 0 -8
-11 -4 -27 6 -22 4 -25 -11 -19 -15 5 -16 4 -6 -8 8 -10 10 -23 5 -38 -5 -13
-9 -27 -9 -33 -1 -5 -8 -26 -17 -45 -9 -19 -19 -44 -22 -55 -6 -16 -9 -17 -17
-5 -8 12 -10 9 -5 -9 3 -13 0 -33 -6 -44 -7 -14 -7 -17 1 -13 7 4 11 -1 11
-13 0 -12 -4 -21 -10 -21 -5 0 -8 -10 -6 -22 2 -13 0 -33 -5 -45 -5 -14 -4
-25 2 -29 6 -3 8 -12 5 -20 -3 -8 0 -14 7 -14 7 0 8 -3 2 -8 -16 -12 -39 -56
-24 -47 8 6 10 4 4 -5 -10 -16 -7 -113 4 -144 9 -25 2 -64 -8 -48 -3 6 -5 -35
-3 -91 2 -56 4 -128 4 -159 1 -32 5 -58 9 -58 3 0 7 -10 7 -22 0 -13 5 -45 11
-73 5 -27 7 -53 3 -57 -4 -4 -54 -12 -112 -18 -58 -6 -121 -15 -140 -20 -32
-9 -110 -72 -110 -90 0 -18 -59 -70 -102 -89 -26 -12 -54 -31 -62 -44 -28 -43
-46 -135 -76 -392 -17 -143 -32 -271 -35 -285 -3 -14 -7 -54 -10 -90 -4 -36
-13 -84 -21 -108 -19 -56 -18 -102 3 -131 l16 -24 -49 5 -49 5 33 -13 32 -14
-19 -28 c-11 -15 -22 -38 -26 -52 -6 -21 -4 -20 14 7 11 18 25 33 31 33 5 0
10 7 10 15 0 8 9 15 21 15 33 0 109 -22 109 -31 0 -5 18 -9 40 -9 34 0 41 -4
46 -25 12 -47 0 -58 -56 -50 -41 6 -51 4 -56 -9 -9 -22 -21 -20 -48 9 -20 22
-25 23 -36 10 -7 -8 -16 -12 -21 -9 -5 3 -9 -2 -9 -10 0 -14 16 -29 69 -66 11
-8 21 -20 21 -27 0 -7 12 -16 26 -19 35 -9 94 24 106 59 10 26 37 35 41 12 0
-5 9 -17 20 -25 17 -15 17 -16 0 -35 -35 -40 -28 -69 28 -130 29 -32 34 -42
21 -42 -37 -2 -130 31 -231 81 -145 73 -151 74 -151 39 0 -39 5 -44 95 -94 81
-45 173 -83 233 -94 32 -6 41 -18 23 -30 -6 -3 -6 -17 -1 -35 5 -17 6 -30 2
-30 -3 0 -1 -5 6 -12 15 -15 15 -45 0 -50 -6 -2 9 -24 34 -49 49 -47 69 -85
88 -164 7 -27 14 -57 17 -65 9 -24 11 -31 29 -115 9 -44 20 -82 24 -85 4 -3 7
-12 8 -20 0 -8 3 -32 6 -53 4 -28 2 -36 -7 -31 -8 5 -9 4 -2 -4 6 -6 59 -18
118 -27 60 -9 120 -20 133 -26 37 -13 131 -11 162 5 15 7 44 16 66 20 21 4 46
11 55 16 9 4 41 20 71 34 142 65 347 222 536 411 148 147 230 248 345 419 181
269 330 673 391 1057 19 125 22 183 23 439 0 316 -7 387 -61 630 -51 225 -155
499 -246 645 -98 155 -253 319 -404 426 -198 142 -410 237 -471 212z m-102
-1859 c112 -34 205 -93 253 -163 61 -88 -5 -126 -234 -138 -180 -9 -379 34
-439 94 -30 30 -32 37 -26 70 15 79 44 110 131 137 68 20 245 21 315 0z m402
-57 c15 -10 25 -22 22 -26 -2 -5 2 -14 11 -22 8 -7 20 -22 26 -33 6 -11 -18 7
-54 39 -41 37 -62 63 -55 67 6 4 14 4 17 0 3 -4 18 -15 33 -25z m62 -201 c-20
-30 -28 -32 -45 -11 -15 18 -15 17 25 31 38 13 40 11 20 -20z m-990 -15 c-2
-4 18 -13 45 -20 28 -7 50 -19 50 -26 0 -15 63 -30 68 -15 2 5 8 10 14 10 6 0
8 -7 4 -15 -3 -8 -1 -15 3 -15 5 0 11 5 13 12 4 12 58 -36 58 -52 0 -6 7 -10
15 -10 8 0 15 -4 15 -10 0 -5 6 -10 14 -10 8 0 16 -7 20 -15 3 -8 1 -15 -4
-15 -6 0 -10 -5 -10 -11 0 -5 5 -7 10 -4 6 4 13 -7 16 -25 4 -17 11 -33 15
-36 5 -3 9 -16 9 -29 0 -12 7 -26 16 -29 9 -3 14 -11 12 -18 -2 -6 4 -20 15
-31 10 -10 16 -25 13 -33 -3 -8 -2 -13 2 -10 11 6 44 -32 38 -43 -3 -5 3 -32
13 -62 11 -29 17 -57 15 -61 -3 -5 -1 -8 4 -8 6 0 12 -20 14 -45 3 -38 0 -46
-20 -56 -16 -9 -19 -15 -10 -21 11 -6 11 -8 0 -8 -7 0 -17 -11 -22 -25 -5 -14
-23 -34 -40 -43 -30 -17 -36 -26 -44 -72 -10 -60 -27 -107 -46 -128 -11 -11
-20 -25 -20 -30 0 -31 -127 -141 -144 -125 -3 4 -6 2 -6 -4 0 -19 -48 -24 -82
-9 -37 15 -88 57 -88 71 0 4 -8 17 -17 28 -11 13 -12 17 -4 12 11 -6 13 -4 8
7 -8 22 10 151 30 217 13 46 14 64 4 119 -7 36 -21 79 -33 94 -20 29 -20 29
-1 34 10 3 25 14 32 25 10 17 9 25 -6 47 -10 15 -25 29 -33 31 -23 5 -44 9
-52 10 -11 1 -63 54 -80 82 -9 14 -21 66 -26 115 -16 136 10 234 60 234 22 0
80 16 108 30 17 8 42 2 35 -9z m945 -11 c0 -5 -2 -10 -4 -10 -3 0 -8 5 -11 10
-3 6 -1 10 4 10 6 0 11 -4 11 -10z m-663 -76 c-3 -3 -12 -4 -19 -1 -8 3 -5 6
6 6 11 1 17 -2 13 -5z m-782 -1164 c3 -5 2 -10 -4 -10 -5 0 -13 5 -16 10 -3 6
-2 10 4 10 5 0 13 -4 16 -10z m120 -68 c-3 -3 -11 0 -18 7 -9 10 -8 11 6 5 10
-3 15 -9 12 -12z m615 -61 c0 -12 -66 -34 -83 -28 -6 2 3 7 20 11 18 4 35 12
38 17 8 12 25 12 25 0z"/>
<path d="M1704 3367 c-34 -40 -44 -90 -21 -104 8 -4 27 -32 43 -60 16 -29 33
-53 38 -53 5 0 14 -7 20 -14 15 -20 66 -32 66 -16 0 7 -8 19 -17 26 -16 12
-15 13 10 4 36 -13 35 -1 -7 74 -48 85 -117 160 -132 143z"/>
</g>
</svg>
